# xmcd CD database file
#
# Track frame offsets:
#	150
#	16262
#	38837
#	53602
#
# Disc length: 926 seconds
#
# Revision: 0
# Processed by: cddbd v1.5.1PL0 Copyright (c) Steve Scherf et al.
# Submitted via: CDex 1.40Release
#
DISCID=24039c04
DTITLE=ZEEBRA - Oh Yeah
DYEAR=2005
DGENRE=JPop
TTITLE0=Oh Yeah
TTITLE1=Slow Down
TTITLE2=Field Of Dreams (Beat Park Anthem)feat.G.K.MARYAN
TTITLE3=Oh Yeah (Instrumental)
EXTD=YEAR: 2005
EXTT0=
EXTT1=
EXTT2=
EXTT3=
PLAYORDER=
